<svg width="141" height="92" viewBox="0 0 141 92" fill="none" xmlns="http://www.w3.org/2000/svg">
<g clip-path="url(#clip0_319_2)">
<path d="M63.2819 39.7682H57.3123L56.2967 44.4852H61.8262L61.3071 46.855H55.7889L54.3783 53.5581H51.5684L54.999 37.3758H63.7897L63.2819 39.7682ZM72.2645 53.5581H63.2368L66.6673 37.3758H69.4885L66.5545 51.177H72.761L72.2645 53.5581ZM80.6039 53.5581H77.794L79.0579 47.611L76.09 37.3758H79.0917L80.7393 44.1805L80.8521 44.7899L80.9086 45.309H80.9537C81.1869 44.7974 81.3788 44.4325 81.5292 44.2144L86.1898 37.3758H89.3269L81.8565 47.5546L80.6039 53.5581ZM103.67 53.5581H100.724L99.8442 42.0928C99.8442 41.7242 99.8894 41.2352 99.9797 40.6258H99.9345C99.7464 41.2352 99.532 41.7957 99.2913 42.3072L93.649 53.5581H90.5344L89.4849 37.3758H92.4076L92.8816 48.9088V49.078C92.8816 49.5069 92.8365 50.0147 92.7462 50.6015H92.8026C92.8477 50.4435 92.9568 50.1539 93.1299 49.7326C93.3029 49.3037 93.4233 49.0254 93.491 48.8975L99.2349 37.3758H102.033L102.812 49.1909V49.3827C102.812 49.8416 102.789 50.2441 102.744 50.5902H102.789C102.887 50.214 103.09 49.6686 103.399 48.9539L108.612 37.3758H111.569L103.67 53.5581ZM122.007 39.7231H116.06L115.09 44.3046H120.619L120.111 46.6518H114.593L113.611 51.2221H119.942L119.457 53.5581H110.316L113.747 37.3758H122.515L122.007 39.7231ZM125.02 53.5581H122.21L125.63 37.3758H128.451L125.02 53.5581ZM139.882 40.4678C139.408 40.1443 138.836 39.8848 138.167 39.6892C137.505 39.4936 136.877 39.3958 136.282 39.3958C135.703 39.3958 135.21 39.4974 134.804 39.7005C134.398 39.8961 134.086 40.1594 133.867 40.4904C133.657 40.8139 133.551 41.1713 133.551 41.5625C133.551 42.1041 133.709 42.5894 134.025 43.0182C134.341 43.4395 134.947 43.9473 135.842 44.5416C137.001 45.3165 137.802 46.05 138.246 46.7421C138.697 47.4267 138.923 48.1941 138.923 49.0442C138.923 49.9846 138.682 50.8347 138.201 51.5945C137.727 52.3468 137.057 52.9111 136.192 53.2872C135.327 53.6559 134.304 53.8402 133.123 53.8402C132.355 53.8402 131.565 53.7424 130.753 53.5468C129.94 53.3437 129.237 53.0803 128.643 52.7568L129.117 50.1727C129.688 50.594 130.339 50.9287 131.069 51.177C131.799 51.4253 132.509 51.5494 133.202 51.5494C134.097 51.5494 134.789 51.3576 135.278 50.9739C135.767 50.5827 136.012 50.0335 136.012 49.3263C136.012 48.7846 135.838 48.3107 135.492 47.9044C135.146 47.4982 134.492 46.9904 133.529 46.381C132.506 45.734 131.761 45.0494 131.295 44.3272C130.836 43.5975 130.606 42.7925 130.606 41.9123C130.606 41.002 130.839 40.1782 131.306 39.4409C131.772 38.7037 132.434 38.1319 133.292 37.7257C134.15 37.3119 135.165 37.105 136.339 37.105C137.655 37.105 139.002 37.3758 140.379 37.9175L139.882 40.4678Z" fill="white"/>
<path d="M21.9375 14.9158H39.2845L30.6121 0L21.9375 14.9158Z" fill="#71fadd"/>
<path d="M11.2109 34.408H28.5579L19.8855 19.4922L11.2109 34.408Z" fill="#419CB5"/>
<path d="M0 53.9001H17.347L8.67238 38.9844L0 53.9001Z" fill="#71FADD"/>
<path d="M22.334 53.5471H39.681L31.0063 38.6313L22.334 53.5471Z" fill="#35BC9F"/>
<path d="M11.998 73.3899H29.345L20.6726 58.4741L11.998 73.3899Z" fill="#2B7A8E"/>
<path d="M38.9848 17.8296L21.6445 18.3033L30.7124 32.9778L38.9848 17.8296Z" fill="#2B7A8E"/>
<path d="M28.4416 36.8213L11.1035 37.371L20.234 52.003L28.4416 36.8213Z" fill="#35BC9F"/>
<path d="M51.3069 37.4043L33.9688 37.954L43.0993 52.5882L51.3069 37.4043Z" fill="#71FADD"/>
<path d="M40.6572 56.8228L23.3125 56.6597L31.8486 71.6559L40.6572 56.8228Z" fill="#419CB5"/>
<path d="M29.345 76.523L11.998 76.438L20.6011 91.394L29.345 76.523Z" fill="#71fadd"/>
<path d="M54.9049 61.5283H53.1627L52.0512 66.7893H50.987L52.0984 61.5283H50.3262L50.5193 60.6357H55.098L54.9049 61.5283ZM62.4532 61.5283H60.1917L59.8226 63.2705H61.9253L61.7322 64.1631H59.6338L59.2605 65.901H61.6679L61.4833 66.7893H58.0074L59.312 60.6357H62.6463L62.4532 61.5283ZM71.2244 61.893C70.7467 61.607 70.2503 61.4639 69.7354 61.4639C69.2376 61.4639 68.7941 61.5784 68.4051 61.8072C68.0189 62.0332 67.7199 62.3479 67.5082 62.7513C67.2965 63.1547 67.1907 63.6095 67.1907 64.1159C67.1907 64.7052 67.3523 65.163 67.6756 65.4891C68.0017 65.8124 68.4423 65.974 68.9973 65.974C69.2805 65.974 69.5465 65.9425 69.7954 65.8796C70.0443 65.8167 70.3032 65.7122 70.5721 65.5663L70.3447 66.5962C69.8841 66.7965 69.3506 66.8966 68.7441 66.8966C68.2091 66.8966 67.7385 66.7865 67.3323 66.5662C66.9289 66.343 66.6185 66.0284 66.4011 65.6221C66.1865 65.213 66.0792 64.7424 66.0792 64.2103C66.0792 63.4951 66.2323 62.8557 66.5384 62.2921C66.8474 61.7257 67.2822 61.2908 67.8429 60.9876C68.4036 60.6844 69.0531 60.5327 69.7911 60.5327C70.369 60.5327 70.9212 60.6443 71.4476 60.8674L71.2244 61.893ZM79.691 66.7893H78.6268L79.1803 64.1588H76.3438L75.7903 66.7893H74.7175L76.022 60.6357H77.0948L76.5412 63.2147H79.382L79.9356 60.6357H80.9998L79.691 66.7893ZM89.8054 66.7893H88.7755L86.6771 62.3694C86.6599 62.3322 86.6299 62.2607 86.587 62.1548C86.5469 62.049 86.5226 61.9731 86.514 61.9274H86.4883L86.4497 62.2192L86.3982 62.5324L85.4927 66.7893H84.4843L85.7845 60.6357H86.9045L88.96 65.0342C89.0258 65.1801 89.073 65.3003 89.1016 65.3947H89.1188C89.1331 65.1973 89.1603 65.007 89.2003 64.8239L90.0929 60.6357H91.1099L89.8054 66.7893ZM100.765 63.1547C100.765 63.8184 100.624 64.4406 100.34 65.0213C100.06 65.5992 99.6709 66.057 99.1731 66.3945C98.6753 66.7293 98.0846 66.8966 97.4008 66.8966C96.9002 66.8966 96.4568 66.7865 96.0706 66.5662C95.6872 66.3459 95.3897 66.0341 95.178 65.6307C94.9692 65.2273 94.8647 64.771 94.8647 64.2618C94.8647 63.724 94.9491 63.2262 95.1179 62.7685C95.2867 62.3107 95.5313 61.9088 95.8517 61.5626C96.175 61.2136 96.5355 60.9547 96.9331 60.7859C97.3336 60.6171 97.7699 60.5327 98.2419 60.5327C98.7368 60.5327 99.176 60.6414 99.5593 60.8589C99.9455 61.0734 100.243 61.381 100.452 61.7815C100.661 62.1791 100.765 62.6369 100.765 63.1547ZM99.6494 63.1933C99.6494 62.6612 99.5121 62.2406 99.2375 61.9317C98.9657 61.6198 98.5967 61.4639 98.1304 61.4639C97.7413 61.4639 97.378 61.5869 97.0404 61.833C96.7057 62.0761 96.4439 62.4194 96.2551 62.8629C96.0691 63.3063 95.9762 63.7712 95.9762 64.2575C95.9762 64.781 96.1092 65.1987 96.3752 65.5105C96.6442 65.8195 97.0146 65.974 97.4867 65.974C97.8958 65.974 98.2634 65.8538 98.5895 65.6135C98.9185 65.3732 99.1774 65.0285 99.3662 64.5794C99.555 64.1302 99.6494 63.6682 99.6494 63.1933ZM107.975 66.7893H104.542L105.846 60.6357H106.919L105.803 65.8839H108.163L107.975 66.7893ZM118.291 63.1547C118.291 63.8184 118.149 64.4406 117.866 65.0213C117.585 65.5992 117.196 66.057 116.699 66.3945C116.201 66.7293 115.61 66.8966 114.926 66.8966C114.426 66.8966 113.982 66.7865 113.596 66.5662C113.213 66.3459 112.915 66.0341 112.703 65.6307C112.495 65.2273 112.39 64.771 112.39 64.2618C112.39 63.724 112.475 63.2262 112.643 62.7685C112.812 62.3107 113.057 61.9088 113.377 61.5626C113.7 61.2136 114.061 60.9547 114.459 60.7859C114.859 60.6171 115.295 60.5327 115.767 60.5327C116.262 60.5327 116.701 60.6414 117.085 60.8589C117.471 61.0734 117.769 61.381 117.977 61.7815C118.186 62.1791 118.291 62.6369 118.291 63.1547ZM117.175 63.1933C117.175 62.6612 117.038 62.2406 116.763 61.9317C116.491 61.6198 116.122 61.4639 115.656 61.4639C115.267 61.4639 114.903 61.5869 114.566 61.833C114.231 62.0761 113.969 62.4194 113.781 62.8629C113.595 63.3063 113.502 63.7712 113.502 64.2575C113.502 64.781 113.635 65.1987 113.901 65.5105C114.17 65.8195 114.54 65.974 115.012 65.974C115.421 65.974 115.789 65.8538 116.115 65.6135C116.444 65.3732 116.703 65.0285 116.892 64.5794C117.08 64.1302 117.175 63.6682 117.175 63.1933ZM127.641 61.9188C127.429 61.7729 127.175 61.657 126.877 61.5712C126.583 61.4825 126.277 61.4382 125.959 61.4382C125.461 61.4382 125.021 61.5497 124.637 61.7729C124.257 61.9932 123.962 62.305 123.753 62.7084C123.547 63.1118 123.444 63.5738 123.444 64.0944C123.444 64.6838 123.602 65.1487 123.916 65.4891C124.234 65.8295 124.666 65.9997 125.212 65.9997C125.521 65.9997 125.809 65.9511 126.075 65.8538L126.392 64.3348H125.054L125.242 63.4593H127.641L127.006 66.4374C126.417 66.7464 125.773 66.9009 125.075 66.9009C124.526 66.9009 124.042 66.7879 123.625 66.5619C123.21 66.333 122.891 66.0112 122.668 65.5964C122.447 65.1787 122.337 64.7024 122.337 64.1674C122.337 63.4665 122.489 62.8371 122.792 62.2793C123.095 61.7214 123.524 61.2908 124.079 60.9876C124.637 60.6844 125.29 60.5327 126.036 60.5327C126.651 60.5327 127.255 60.6586 127.847 60.9104L127.641 61.9188ZM133.821 66.7893H132.752L133.233 64.5279L132.104 60.6357H133.246L133.872 63.2233L133.915 63.4551L133.936 63.6524H133.954C134.042 63.4579 134.115 63.3192 134.172 63.2362L135.945 60.6357H137.138L134.297 64.5064L133.821 66.7893Z" fill="white"/>
</g>
<defs>
<clipPath id="clip0_319_2">
<rect width="141" height="92" fill="white"/>
</clipPath>
</defs>
</svg>
